Coordinates
version=1
nRows=18
nColumns=26
inDegrees=yes

Units are S.I. units (second, meters, Newtons, ...)
Angles are in degrees.

endheader
time	pelvis_tilt	pelvis_list	pelvis_rotation	pelvis_tx	pelvis_ty	pelvis_tz	hip_flexion_r	hip_adduction_r	hip_rotation_r	knee_angle_r	knee_angle_r_beta	ankle_angle_r	subtalar_angle_r	mtp_angle_r	hip_flexion_l	hip_adduction_l	hip_rotation_l	knee_angle_l	knee_angle_l_beta	ankle_angle_l	subtalar_angle_l	mtp_angle_l	lumbar_extension	lumbar_bending	lumbar_rotation
      0.82500000	      7.76799042	     -4.05857181	      1.15716828	      0.95390000	      1.00848737	      0.20407467	     -2.17273686	      7.75272709	     -2.32803471	     12.80497042	     12.80497042	      4.63258270	      0.00000000	      0.00000000	     12.84616586	    -11.22252547	     -4.65328226	     67.17063195	     67.17063195	      9.55327923	      0.00000000	      0.00000000	    -19.52002899	      5.26948054	      4.53317998
      0.83333333	      7.83099104	     -3.79572645	      1.04942606	      0.96214532	      1.00957435	      0.20468017	     -3.09983970	      7.51989532	     -2.08264323	     12.25314977	     12.25314977	      4.73481781	      0.00000000	      0.00000000	     13.63695411	    -10.91031055	     -4.97129160	     66.22224370	     66.22224370	      9.79711354	      0.00000000	      0.00000000	    -19.63756780	      4.93849074	      4.58139902
      0.84166667	      7.84567920	     -3.60038111	      0.88760606	      0.97029221	      1.01050742	      0.20540194	     -3.95359508	      7.36224930	     -1.81196332	     11.68991312	     11.68991312	      4.80899903	      0.00000000	      0.00000000	     14.49681165	    -10.65733985	     -5.30092869	     65.16148869	     65.16148869	      9.97334164	      0.00000000	      0.00000000	    -19.72301240	      4.67049406	      4.68653628
      0.85000000	      7.82840041	     -3.41093827	      0.76564817	      0.97824661	      1.01129860	      0.20606158	     -4.72842024	      7.20571985	     -1.66933409	     11.16134715	     11.16134715	      4.91823165	      0.00000000	      0.00000000	     15.43850650	    -10.39742046	     -5.60612179	     64.06616886	     64.06616886	      9.98182707	      0.00000000	      0.00000000	    -19.79546468	      4.42236640	      4.75683598
      0.85833333	      7.80574634	     -3.19405566	      0.59968762	      0.98616712	      1.01201996	      0.20673330	     -5.46387482	      7.00743146	     -1.52182660	     10.73810367	     10.73810367	      5.02610587	      0.00000000	      0.00000000	     16.21002635	    -10.12355028	     -5.99102568	     62.64941626	     62.64941626	      9.97030412	      0.00000000	      0.00000000	    -19.87681649	      4.13642803	      4.85818127
      0.86666667	      7.74596088	     -3.01113351	      0.40950569	      0.99407943	      1.01254090	      0.20729500	     -6.21547613	      6.83926341	     -1.19557517	     10.18779588	     10.18779588	      5.12463766	      0.00000000	      0.00000000	     16.90885640	     -9.87728222	     -6.42275578	     61.01769005	     61.01769005	      9.89333509	      0.00000000	      0.00000000	    -19.91613359	      3.88781293	      4.92359289
      0.87500000	      7.69570970	     -2.87686295	      0.24080781	      1.00198737	      1.01298485	      0.20773612	     -6.97968231	      6.71448698	     -0.91499264	      9.62461805	      9.62461805	      5.22827445	      0.00000000	      0.00000000	     17.52824826	     -9.66953962	     -6.77238499	     59.24910647	     59.24910647	      9.75316868	      0.00000000	      0.00000000	    -19.97063295	      3.71095613	      4.97253242
      0.88333333	      7.61022918	     -2.77066927	      0.05515996	      1.00983214	      1.01313721	      0.20831164	     -7.70287945	      6.62541260	     -0.57630081	      9.06424212	      9.06424212	      5.38153582	      0.00000000	      0.00000000	     18.14152658	     -9.52469829	     -7.19385112	     57.35666133	     57.35666133	      9.47823994	      0.00000000	      0.00000000	    -19.99350605	      3.54213357	      5.06340752
      0.89166667	      7.64713578	     -2.53524203	     -0.19069955	      1.01777540	      1.01355060	      0.20864599	     -8.53768695	      6.33955628	     -0.32199306	      8.54557525	      8.54557525	      5.49489292	      0.00000000	      0.00000000	     18.45139496	     -9.19267385	     -7.68716105	     55.13505159	     55.13505159	      9.10625814	      0.00000000	      0.00000000	    -20.14854763	      3.24747495	      5.16172654
      0.90000000	      7.62655674	     -2.47453496	     -0.38382822	      1.02559634	      1.01363094	      0.20905463	     -9.28550076	      6.26245898	     -0.07600429	      8.05496659	      8.05496659	      5.57670311	      0.00000000	      0.00000000	     18.86506153	     -9.09637118	     -8.23463139	     52.93775595	     52.93775595	      8.59496267	      0.00000000	      0.00000000	    -20.25549007	      3.14716763	      5.28947381
      0.90833333	      7.45989460	     -2.51511489	     -0.48419875	      1.03315167	      1.01333012	      0.20923147	     -9.77692107	      6.28818937	      0.01815575	      7.69262419	      7.69262419	      5.67387967	      0.00000000	      0.00000000	     19.41311464	     -9.02075639	     -8.60288102	     50.56274885	     50.56274885	      8.09977342	      0.00000000	      0.00000000	    -20.22912344	      3.19188024	      5.29398751
      0.91666667	      7.31026471	     -2.49376559	     -0.64022061	      1.04075667	      1.01288398	      0.20942622	    -10.30817478	      6.24312121	      0.17628252	      7.33246257	      7.33246257	      5.84411413	      0.00000000	      0.00000000	     19.82546569	     -8.85387107	     -9.00453435	     47.99601113	     47.99601113	      7.46454795	      0.00000000	      0.00000000	    -20.22004566	      3.16127018	      5.36300370
      0.92500000	      7.22530087	     -2.48906411	     -0.88164274	      1.04851743	      1.01243235	      0.20972968	    -10.94307508	      6.19340643	      0.43066398	      6.93699090	      6.93699090	      5.95335928	      0.00000000	      0.00000000	     20.08534114	     -8.74455108	     -9.47843397	     45.36366402	     45.36366402	      6.89153794	      0.00000000	      0.00000000	    -20.27720697	      3.12162378	      5.54926530
      0.93333333	      7.04282640	     -2.53668882	     -1.14063302	      1.05608448	      1.01165433	      0.21000017	    -11.40371788	      6.19899648	      0.59308759	      6.65273307	      6.65273307	      6.10416862	      0.00000000	      0.00000000	     20.34547252	     -8.68244636	    -10.01996495	     42.51161823	     42.51161823	      6.27033615	      0.00000000	      0.00000000	    -20.25882286	      3.14596069	      5.73191270
      0.94166667	      6.84699945	     -2.60014150	     -1.37261885	      1.06357544	      1.01078819	      0.21019205	    -11.80717145	      6.20508540	      0.70699509	      6.43555861	      6.43555861	      6.30677581	      0.00000000	      0.00000000	     20.59737836	     -8.62077662	    -10.54574373	     39.61643027	     39.61643027	      5.50951036	      0.00000000	      0.00000000	    -20.23763366	      3.20137623	      5.87999000
      0.95000000	      6.63334037	     -2.68664371	     -1.62417710	      1.07110176	      1.00984589	      0.21030692	    -12.20078252	      6.22519575	      0.88329143	      6.20570812	      6.20570812	      6.60190401	      0.00000000	      0.00000000	     20.76363738	     -8.57087034	    -11.11084064	     36.54273773	     36.54273773	      4.56059061	      0.00000000	      0.00000000	    -20.20252686	      3.29125606	      6.05006431
      0.95833333	      6.42003546	     -2.80258959	     -1.91219136	      1.07856413	      1.00875831	      0.21050245	    -12.57290885	      6.27014271	      1.12660896	      6.02587332	      6.02587332	      6.87966117	      0.00000000	      0.00000000	     20.85575629	     -8.53546170	    -11.69617204	     33.35567198	     33.35567198	      3.51079851	      0.00000000	      0.00000000	    -20.18779638	      3.40350271	      6.26352662
      0.96666667	      6.23763740	     -2.90711087	     -2.19414420	      1.08611558	      1.00768028	      0.21052390	    -12.96826578	      6.28401131	      1.33292531	      5.86303800	      5.86303800	      7.09260200	      0.00000000	      0.00000000	     20.80368241	     -8.41654553	    -12.26594807	     29.96702325	     29.96702325	      2.31356880	      0.00000000	      0.00000000	    -20.21291829	      3.51570780	      6.42774501
